<svg width="3000" height="3000" viewBox="0 0 3000 3000" fill="none" xmlns="http://www.w3.org/2000/svg">
<path fill-rule="evenodd" clip-rule="evenodd" d="M3000 0H0V3000H3000V0ZM1500 1550C1527.61 1550 1550 1527.61 1550 1500C1550 1472.39 1527.61 1450 1500 1450C1472.39 1450 1450 1472.39 1450 1500C1450 1527.61 1472.39 1550 1500 1550Z" fill="black" fill-opacity="0.02"/>
<path fill-rule="evenodd" clip-rule="evenodd" d="M3000 0H0V3000H3000V0ZM1500 1560C1533.14 1560 1560 1533.14 1560 1500C1560 1466.86 1533.14 1440 1500 1440C1466.86 1440 1440 1466.86 1440 1500C1440 1533.14 1466.86 1560 1500 1560Z" fill="black" fill-opacity="0.04"/>
<path fill-rule="evenodd" clip-rule="evenodd" d="M3000 0H0V3000H3000V0ZM1500 1580C1544.18 1580 1580 1544.18 1580 1500C1580 1455.82 1544.18 1420 1500 1420C1455.82 1420 1420 1455.82 1420 1500C1420 1544.18 1455.82 1580 1500 1580Z" fill="black" fill-opacity="0.06"/>
<path fill-rule="evenodd" clip-rule="evenodd" d="M3000 0H0V3000H3000V0ZM1500 1610C1560.75 1610 1610 1560.75 1610 1500C1610 1439.25 1560.75 1390 1500 1390C1439.25 1390 1390 1439.25 1390 1500C1390 1560.75 1439.25 1610 1500 1610Z" fill="black" fill-opacity="0.08"/>
<path fill-rule="evenodd" clip-rule="evenodd" d="M3000 0H0V3000H3000V0ZM1500 1650C1582.84 1650 1650 1582.84 1650 1500C1650 1417.16 1582.84 1350 1500 1350C1417.16 1350 1350 1417.16 1350 1500C1350 1582.84 1417.16 1650 1500 1650Z" fill="black" fill-opacity="0.1"/>
<path fill-rule="evenodd" clip-rule="evenodd" d="M3000 0H0V3000H3000V0ZM1500 1700C1610.46 1700 1700 1610.46 1700 1500C1700 1389.54 1610.46 1300 1500 1300C1389.54 1300 1300 1389.54 1300 1500C1300 1610.46 1389.54 1700 1500 1700Z" fill="black" fill-opacity="0.12"/>
<path fill-rule="evenodd" clip-rule="evenodd" d="M3000 0H0V3000H3000V0ZM1500 1760C1643.59 1760 1760 1643.59 1760 1500C1760 1356.41 1643.59 1240 1500 1240C1356.41 1240 1240 1356.41 1240 1500C1240 1643.59 1356.41 1760 1500 1760Z" fill="black" fill-opacity="0.14"/>
<path fill-rule="evenodd" clip-rule="evenodd" d="M3000 0H0V3000H3000V0ZM1500 1830C1682.25 1830 1830 1682.25 1830 1500C1830 1317.75 1682.25 1170 1500 1170C1317.75 1170 1170 1317.75 1170 1500C1170 1682.25 1317.75 1830 1500 1830Z" fill="black" fill-opacity="0.16"/>
<path fill-rule="evenodd" clip-rule="evenodd" d="M3000 0H0V3000H3000V0ZM1500 1910C1726.44 1910 1910 1726.44 1910 1500C1910 1273.56 1726.44 1090 1500 1090C1273.56 1090 1090 1273.56 1090 1500C1090 1726.44 1273.56 1910 1500 1910Z" fill="black" fill-opacity="0.18"/>
<path fill-rule="evenodd" clip-rule="evenodd" d="M3000 0H0V3000H3000V0ZM1500 2000C1776.14 2000 2000 1776.14 2000 1500C2000 1223.86 1776.14 1000 1500 1000C1223.86 1000 1000 1223.86 1000 1500C1000 1776.14 1223.86 2000 1500 2000Z" fill="black" fill-opacity="0.2"/>
<path fill-rule="evenodd" clip-rule="evenodd" d="M3000 0H0V3000H3000V0ZM1500 2100C1831.37 2100 2100 1831.37 2100 1500C2100 1168.63 1831.37 900 1500 900C1168.63 900 900 1168.63 900 1500C900 1831.37 1168.63 2100 1500 2100Z" fill="black" fill-opacity="0.22"/>
<path fill-rule="evenodd" clip-rule="evenodd" d="M3000 0H0V3000H3000V0ZM1500 2210C1892.12 2210 2210 1892.12 2210 1500C2210 1107.88 1892.12 790 1500 790C1107.88 790 790 1107.88 790 1500C790 1892.12 1107.88 2210 1500 2210Z" fill="black" fill-opacity="0.24"/>
<path fill-rule="evenodd" clip-rule="evenodd" d="M3000 0H0V3000H3000V0ZM1500 2330C1958.4 2330 2330 1958.4 2330 1500C2330 1041.6 1958.4 670 1500 670C1041.6 670 670 1041.6 670 1500C670 1958.4 1041.6 2330 1500 2330Z" fill="black" fill-opacity="0.26"/>
<path fill-rule="evenodd" clip-rule="evenodd" d="M3000 0H0V3000H3000V0ZM1500 2460C2030.19 2460 2460 2030.19 2460 1500C2460 969.807 2030.19 540 1500 540C969.807 540 540 969.807 540 1500C540 2030.19 969.807 2460 1500 2460Z" fill="black" fill-opacity="0.28"/>
<path fill-rule="evenodd" clip-rule="evenodd" d="M3000 0H0V3000H3000V0ZM1500 2600C2107.51 2600 2600 2107.51 2600 1500C2600 892.487 2107.51 400 1500 400C892.487 400 400 892.487 400 1500C400 2107.51 892.487 2600 1500 2600Z" fill="black" fill-opacity="0.3"/>
<path fill-rule="evenodd" clip-rule="evenodd" d="M3000 0H0V3000H3000V0ZM1500 2750C2190.36 2750 2750 2190.36 2750 1500C2750 809.644 2190.36 250 1500 250C809.644 250 250 809.644 250 1500C250 2190.36 809.644 2750 1500 2750Z" fill="black" fill-opacity="0.32"/>
</svg>
